<?xml version="1.0" encoding="utf-8"?>
<!-- Generator: Adobe Illustrator 16.0.1, SVG Export Plug-In . SVG Version: 6.00 Build 0)  -->
<!DOCTYPE svg PUBLIC "-//W3C//DTD SVG 1.1//EN" "http://www.w3.org/Graphics/SVG/1.1/DTD/svg11.dtd">
<svg version="1.1" id="Layer_1" xmlns="http://www.w3.org/2000/svg" xmlns:xlink="http://www.w3.org/1999/xlink" x="0px" y="0px"
	 width="69.622px" height="70.358px" viewBox="0 0 69.622 70.358" enable-background="new 0 0 69.622 70.358" xml:space="preserve">
<g>
	<text transform="matrix(1 0 0 1 15.6006 10.9077)" fill="#383026" font-family="'Georgia'" font-size="10.0168">bat society</text>
	<g>
		<path fill="#383026" stroke="#FFFFFF" stroke-width="0.8347" stroke-miterlimit="10" d="M61.685,53.729
			c-1.049,2.171-2.378,4.176-3.939,5.987H15.884c-1.56-1.812-2.888-3.816-3.931-5.987H61.685z"/>
		<path fill="#383026" stroke="#FFFFFF" stroke-width="0.8347" stroke-miterlimit="10" d="M15.884,59.716h41.862
			c-5.057,5.875-12.562,9.598-20.928,9.598C28.447,69.314,20.951,65.591,15.884,59.716z"/>
		<path fill="#383026" stroke="#FFFFFF" stroke-width="0.8347" stroke-miterlimit="10" d="M64.432,41.768
			c-0.008,2.054-0.233,4.058-0.667,5.986H9.866c-0.434-1.929-0.66-3.933-0.667-5.986H64.432z"/>
		<path fill="#383026" stroke="#FFFFFF" stroke-width="0.8347" stroke-miterlimit="10" d="M63.765,47.754
			c-0.469,2.094-1.169,4.099-2.08,5.975H11.953c-0.919-1.876-1.62-3.881-2.087-5.975H63.765z"/>
		<path fill="#383026" stroke="#FFFFFF" stroke-width="0.8347" stroke-miterlimit="10" d="M63.798,35.783H9.833
			c0.46-2.094,1.152-4.09,2.054-5.976h49.858C62.646,31.693,63.338,33.689,63.798,35.783z"/>
		<path fill="#383026" stroke="#FFFFFF" stroke-width="0.8347" stroke-miterlimit="10" d="M61.745,29.807H11.886
			c1.035-2.171,2.346-4.174,3.881-5.985h42.096C59.4,25.633,60.709,27.636,61.745,29.807z"/>
		<path fill="#383026" stroke="#383026" stroke-width="0.7212" stroke-miterlimit="10" d="M50.092,17.933H23.585
			c3.929-1.844,8.5-2.907,13.385-2.907C41.848,15.026,46.164,16.083,50.092,17.933z"/>
		<path fill="#383026" stroke="#FFFFFF" stroke-width="0.8347" stroke-miterlimit="10" d="M64.432,41.702v0.066H9.199v-0.066
			c0-2.029,0.216-4.015,0.634-5.918h53.966C64.215,37.687,64.432,39.672,64.432,41.702z"/>
		<path fill="#383026" stroke="#FFFFFF" stroke-width="0.626" stroke-miterlimit="10" d="M58.033,23.822H15.602
			c2.02-2.369,4.173-4.254,6.886-5.84l28.23-0.145C53.422,19.415,56.013,21.443,58.033,23.822z"/>
	</g>
	<path fill="#383026" stroke="#FFFFFF" stroke-width="0.626" stroke-miterlimit="10" d="M43.736,36.996
		c0,0-11.035-9.76-13.705-14.222c0,0-0.948-1.984,1.104-1.469c0,0-0.512-1.162-2.371-0.344c0,0-15.352-11.054-22.572-11.856
		l-4.87-0.099c0,0,4.894,1.592,4.044,9.528c0,0,5.589,1.511,7.333,15.875c0,0,9.968-1.079,11.741,7.408
		c1.771,8.489,1.291,14.872,0.122,16.968c0,0-1.564,1.469-1.92,1.698c-0.358,0.233-0.505,1.185,0.977,0.5
		c0,0-0.141,0.745,0.224,1.022c0.368,0.274,1.058-1.123,1.377-1.295c0.319-0.174,1.321-2.669,1.855-2.329
		c0.535,0.343,1.983,0.598-1.647,3.799c0,0,1.199-0.012,1.911-0.374c0,0-0.215,1.253-0.141,1.58c0.07,0.319-0.087-0.166,1.063-1.231
		c0,0,5.002-7.181,10.522-8.756c5.521-1.578,6.644,3.737,6.671,6.182c0,0,8.089-4.747,13.596-0.604c0,0,4.221-3.993,9.235-0.459
		c0,0,2.403-1.14-0.422-6.08c-2.825-4.938-6.871-6.851-6.871-6.851s0.407-1.162,1.448-0.831c0,0-0.512-0.703-2.583-0.144
		c0,0-7.164-1.479-9.297-3.97c0,0,1.716-1.705,1.987-2.327c0.271-0.62,0.729-0.778-0.756-1.568c0,0-0.53,0.145-1.545-0.753
		c-1.016-0.899-2.76-0.491-3.496-0.123c0,0-0.672-0.583-1.282-0.414c0,0-0.194,1.267-0.303,1.394S44.286,37.487,43.736,36.996z"/>
</g>
</svg>
