<?xml version="1.0" encoding="utf-8"?>
<!-- Generator: Adobe Illustrator 16.0.1, SVG Export Plug-In . SVG Version: 6.00 Build 0)  -->
<!DOCTYPE svg PUBLIC "-//W3C//DTD SVG 1.1//EN" "http://www.w3.org/Graphics/SVG/1.1/DTD/svg11.dtd">
<svg version="1.1" id="Layer_1" xmlns="http://www.w3.org/2000/svg" xmlns:xlink="http://www.w3.org/1999/xlink" x="0px" y="0px"
	 width="144px" height="140.74px" viewBox="0 0 144 140.74" enable-background="new 0 0 144 140.74" xml:space="preserve">
<g>
	<text transform="matrix(1 0 0 1 33.5664 18.5679)" fill="#383026" font-family="'Georgia'" font-size="20.4612">bat society</text>
	<g>
		<path fill="#383026" stroke="#FFFFFF" stroke-width="1.7051" stroke-miterlimit="10" d="M127.703,106.039
			c-2.144,4.435-4.857,8.53-8.049,12.23h-85.51c-3.186-3.7-5.899-7.796-8.03-12.23H127.703z"/>
		<path fill="#383026" stroke="#FFFFFF" stroke-width="1.7051" stroke-miterlimit="10" d="M34.145,118.269h85.51
			c-10.329,12.001-25.658,19.604-42.748,19.604C59.807,137.874,44.496,130.27,34.145,118.269z"/>
		<path fill="#383026" stroke="#FFFFFF" stroke-width="1.7051" stroke-miterlimit="10" d="M133.314,81.606
			c-0.017,4.195-0.478,8.289-1.363,12.228H21.852c-0.887-3.938-1.347-8.032-1.363-12.228H133.314z"/>
		<path fill="#383026" stroke="#FFFFFF" stroke-width="1.7051" stroke-miterlimit="10" d="M131.951,93.833
			c-0.958,4.277-2.388,8.373-4.248,12.205H26.115c-1.876-3.832-3.309-7.928-4.263-12.205H131.951z"/>
		<path fill="#383026" stroke="#FFFFFF" stroke-width="1.7051" stroke-miterlimit="10" d="M132.02,69.381H21.784
			c0.939-4.278,2.354-8.355,4.195-12.207h101.846C129.666,61.026,131.08,65.103,132.02,69.381z"/>
		<path fill="#383026" stroke="#FFFFFF" stroke-width="1.7051" stroke-miterlimit="10" d="M127.824,57.174H25.979
			c2.113-4.434,4.791-8.526,7.929-12.227h85.989C123.035,48.648,125.709,52.74,127.824,57.174z"/>
		<path fill="#383026" stroke="#383026" stroke-width="1.4732" stroke-miterlimit="10" d="M104.021,32.919H49.875
			C57.9,29.151,67.24,26.98,77.218,26.98C87.182,26.98,95.996,29.138,104.021,32.919z"/>
		<path fill="#383026" stroke="#FFFFFF" stroke-width="1.7051" stroke-miterlimit="10" d="M133.314,81.47v0.136H20.489V81.47
			c0-4.145,0.441-8.2,1.294-12.089H132.02C132.871,73.27,133.314,77.326,133.314,81.47z"/>
		<path fill="#383026" stroke="#FFFFFF" stroke-width="1.2788" stroke-miterlimit="10" d="M120.241,44.947H33.567
			c4.125-4.839,8.524-8.69,14.067-11.929l57.667-0.294C110.824,35.946,116.117,40.089,120.241,44.947z"/>
	</g>
	<path fill="#383026" stroke="#FFFFFF" stroke-width="1.2788" stroke-miterlimit="10" d="M91.037,71.858
		c0,0-22.541-19.938-27.994-29.051c0,0-1.936-4.054,2.256-3c0,0-1.045-2.373-4.844-0.703c0,0-31.358-22.58-46.108-24.218L4.4,14.685
		c0,0,9.996,3.252,8.26,19.462c0,0,11.416,3.086,14.979,32.427c0,0,20.362-2.203,23.983,15.133
		c3.617,17.34,2.637,30.379,0.249,34.659c0,0-3.195,3-3.922,3.469c-0.732,0.478-1.032,2.421,1.996,1.022
		c0,0-0.288,1.521,0.458,2.088c0.75,0.561,2.161-2.294,2.812-2.645c0.653-0.355,2.699-5.452,3.791-4.758
		c1.092,0.7,4.05,1.221-3.365,7.76c0,0,2.45-0.024,3.904-0.765c0,0-0.44,2.56-0.289,3.228c0.144,0.652-0.178-0.339,2.173-2.516
		c0,0,10.218-14.667,21.494-17.885c11.276-3.224,13.57,7.634,13.627,12.626c0,0,16.522-9.696,27.771-1.233
		c0,0,8.621-8.157,18.865-0.938c0,0,4.909-2.327-0.861-12.419c-5.772-10.086-14.036-13.994-14.036-13.994s0.832-2.374,2.958-1.697
		c0,0-1.045-1.437-5.276-0.293c0,0-14.634-3.022-18.99-8.109c0,0,3.505-3.483,4.059-4.753c0.556-1.268,1.491-1.591-1.543-3.204
		c0,0-1.084,0.295-3.156-1.538c-2.075-1.836-5.638-1.004-7.142-0.251c0,0-1.372-1.192-2.619-0.846c0,0-0.396,2.587-0.618,2.846
		C93.738,71.82,92.16,72.861,91.037,71.858z"/>
</g>
</svg>
