<?xml version="1.0" encoding="utf-8"?>
<!-- Generator: Adobe Illustrator 16.0.1, SVG Export Plug-In . SVG Version: 6.00 Build 0)  -->
<!DOCTYPE svg PUBLIC "-//W3C//DTD SVG 1.1//EN" "http://www.w3.org/Graphics/SVG/1.1/DTD/svg11.dtd">
<svg version="1.1" id="Layer_1" xmlns="http://www.w3.org/2000/svg" xmlns:xlink="http://www.w3.org/1999/xlink" x="0px" y="0px"
	 width="144px" height="140.74px" viewBox="0 0 144 140.74" style="enable-background:new 0 0 144 140.74;" xml:space="preserve">
<style type="text/css">
<![CDATA[
	.st0{enable-background:new    ;}
	.st1{fill:#383026;stroke:#FFFFFF;stroke-width:1.2788;stroke-miterlimit:10;}
	.st2{fill:#383026;stroke:#FFFFFF;stroke-width:1.7051;stroke-miterlimit:10;}
	.st3{fill:#383026;stroke:#383026;stroke-width:1.4732;stroke-miterlimit:10;}
	.st4{fill:#383026;}
]]>
</style>
<g>
	<g class="st0">
		<path class="st4" d="M44.29,13.63c0,1.48-0.47,2.72-1.4,3.73s-2.01,1.51-3.25,1.51c-0.54,0-1.07-0.08-1.59-0.25
			c-0.52-0.17-1.01-0.39-1.47-0.67l-0.74,1.15l-0.62-0.14c0.03-0.49,0.06-1.09,0.07-1.78c0.01-0.69,0.02-1.36,0.02-2.01V5.41
			c0-0.23-0.05-0.45-0.15-0.68c-0.1-0.23-0.23-0.39-0.39-0.49c-0.13-0.09-0.34-0.15-0.63-0.19c-0.3-0.04-0.53-0.07-0.71-0.08V3.32
			l3.62-0.22l0.14,0.15v6.49l0.07,0.02C37.65,9.33,38.1,9,38.59,8.78c0.49-0.22,0.97-0.33,1.44-0.33c1.21,0,2.22,0.48,3.04,1.44
			C43.88,10.85,44.29,12.09,44.29,13.63z M42.2,13.7c0-0.49-0.05-1-0.16-1.51s-0.27-0.96-0.5-1.34c-0.23-0.39-0.52-0.7-0.89-0.94
			c-0.37-0.24-0.81-0.36-1.32-0.36c-0.47,0-0.87,0.09-1.22,0.27c-0.35,0.18-0.66,0.43-0.94,0.75v5.73c0.04,0.16,0.12,0.35,0.23,0.56
			c0.12,0.21,0.27,0.42,0.47,0.61c0.2,0.19,0.43,0.34,0.68,0.45c0.25,0.12,0.56,0.17,0.93,0.17c0.81,0,1.47-0.39,1.97-1.18
			S42.2,15.07,42.2,13.7z"/>
		<path class="st4" d="M55.08,18.39c-0.31,0.11-0.59,0.21-0.82,0.27c-0.24,0.07-0.5,0.11-0.8,0.11c-0.52,0-0.93-0.12-1.24-0.37
			c-0.31-0.24-0.51-0.6-0.59-1.06h-0.06c-0.43,0.48-0.9,0.85-1.39,1.1c-0.5,0.25-1.09,0.38-1.79,0.38c-0.74,0-1.35-0.23-1.82-0.68
			c-0.48-0.45-0.71-1.05-0.71-1.78c0-0.38,0.05-0.72,0.16-1.02c0.11-0.3,0.27-0.57,0.48-0.81c0.17-0.2,0.39-0.38,0.66-0.53
			c0.27-0.16,0.53-0.28,0.77-0.38c0.3-0.11,0.91-0.32,1.82-0.63c0.92-0.31,1.53-0.55,1.85-0.72v-0.99c0-0.09-0.02-0.25-0.05-0.5
			c-0.04-0.25-0.12-0.48-0.23-0.7c-0.13-0.25-0.32-0.46-0.56-0.64c-0.24-0.18-0.59-0.27-1.03-0.27c-0.31,0-0.59,0.05-0.85,0.16
			c-0.26,0.1-0.45,0.21-0.55,0.32c0,0.13,0.03,0.33,0.09,0.59s0.1,0.5,0.1,0.72c0,0.23-0.1,0.45-0.31,0.64s-0.5,0.29-0.87,0.29
			c-0.33,0-0.58-0.12-0.73-0.35c-0.16-0.24-0.23-0.5-0.23-0.79c0-0.31,0.11-0.6,0.32-0.88c0.22-0.28,0.5-0.53,0.84-0.75
			c0.3-0.19,0.66-0.34,1.09-0.47s0.84-0.2,1.25-0.2c0.56,0,1.05,0.04,1.46,0.12c0.42,0.08,0.79,0.24,1.13,0.49
			c0.34,0.25,0.6,0.58,0.77,1c0.18,0.42,0.26,0.97,0.26,1.63c0,0.95-0.01,1.8-0.03,2.53c-0.02,0.74-0.03,1.54-0.03,2.41
			c0,0.26,0.04,0.47,0.13,0.62s0.23,0.28,0.41,0.39c0.1,0.06,0.26,0.09,0.47,0.1s0.44,0.01,0.66,0.01V18.39z M51.59,13.11
			c-0.57,0.17-1.06,0.33-1.49,0.49s-0.82,0.36-1.19,0.6c-0.33,0.23-0.6,0.5-0.79,0.81c-0.19,0.31-0.29,0.68-0.29,1.11
			c0,0.55,0.14,0.96,0.43,1.22c0.29,0.26,0.66,0.39,1.1,0.39c0.47,0,0.89-0.12,1.25-0.35c0.36-0.23,0.66-0.5,0.91-0.82L51.59,13.11z
			"/>
		<path class="st4" d="M62.14,18.14c-0.43,0.18-0.84,0.33-1.23,0.46c-0.39,0.12-0.86,0.18-1.42,0.18c-0.83,0-1.41-0.21-1.74-0.62
			c-0.34-0.42-0.5-1-0.5-1.76V9.72h-1.78V8.76h1.82V5.69h1.82v3.07h2.83v0.96h-2.81v5.5c0,0.41,0.01,0.76,0.04,1.03
			c0.03,0.28,0.1,0.52,0.21,0.72c0.11,0.19,0.27,0.34,0.48,0.44c0.21,0.1,0.5,0.15,0.86,0.15c0.17,0,0.41-0.01,0.73-0.04
			c0.32-0.03,0.55-0.07,0.68-0.12V18.14z"/>
		<path class="st4" d="M74.56,13.74c0.27,0.24,0.48,0.52,0.63,0.83c0.15,0.31,0.22,0.7,0.22,1.15c0,0.91-0.34,1.66-1.02,2.24
			s-1.57,0.87-2.65,0.87c-0.57,0-1.1-0.1-1.58-0.31s-0.83-0.4-1.03-0.57l-0.2,0.65h-0.75l-0.1-3.43h0.69
			c0.05,0.26,0.17,0.56,0.34,0.91s0.38,0.66,0.63,0.94c0.26,0.29,0.57,0.54,0.93,0.74c0.36,0.2,0.77,0.3,1.22,0.3
			c0.64,0,1.13-0.15,1.48-0.44c0.35-0.29,0.52-0.71,0.52-1.25c0-0.28-0.05-0.52-0.16-0.72c-0.11-0.2-0.27-0.38-0.48-0.54
			c-0.22-0.15-0.49-0.29-0.81-0.41c-0.32-0.12-0.68-0.25-1.07-0.37c-0.31-0.09-0.66-0.22-1.04-0.38s-0.71-0.36-0.98-0.58
			c-0.29-0.23-0.53-0.52-0.72-0.86c-0.19-0.34-0.28-0.74-0.28-1.2c0-0.81,0.3-1.49,0.9-2.05c0.6-0.56,1.4-0.84,2.41-0.84
			c0.39,0,0.78,0.05,1.18,0.15c0.4,0.1,0.73,0.22,0.98,0.36l0.23-0.52h0.72l0.15,3.17h-0.69c-0.14-0.71-0.44-1.29-0.9-1.73
			c-0.46-0.45-1.03-0.67-1.69-0.67c-0.55,0-0.98,0.14-1.29,0.41c-0.31,0.28-0.47,0.61-0.47,1c0,0.3,0.05,0.55,0.15,0.75
			c0.1,0.2,0.26,0.37,0.46,0.51c0.2,0.13,0.45,0.26,0.75,0.38c0.3,0.12,0.68,0.25,1.12,0.39c0.44,0.14,0.85,0.3,1.24,0.49
			S74.31,13.52,74.56,13.74z"/>
		<path class="st4" d="M86.51,13.54c0,0.69-0.11,1.37-0.33,2.04c-0.22,0.67-0.53,1.24-0.94,1.7c-0.46,0.53-0.99,0.93-1.6,1.19
			c-0.61,0.26-1.29,0.39-2.04,0.39c-0.63,0-1.22-0.12-1.79-0.35s-1.07-0.58-1.51-1.03c-0.43-0.45-0.78-0.99-1.04-1.63
			c-0.26-0.64-0.38-1.36-0.38-2.16c0-1.54,0.45-2.8,1.34-3.78s2.07-1.47,3.53-1.47c1.38,0,2.52,0.46,3.42,1.39
			C86.06,10.76,86.51,12,86.51,13.54z M84.44,13.56c0-0.5-0.05-1.03-0.15-1.58c-0.1-0.56-0.25-1.03-0.45-1.41
			c-0.21-0.41-0.49-0.74-0.84-0.99c-0.35-0.25-0.77-0.37-1.27-0.37c-0.51,0-0.95,0.13-1.32,0.38c-0.36,0.25-0.66,0.6-0.89,1.04
			c-0.21,0.41-0.36,0.87-0.45,1.39c-0.09,0.52-0.13,1.02-0.13,1.51c0,0.64,0.05,1.23,0.15,1.77s0.27,1.03,0.5,1.45
			c0.23,0.43,0.51,0.76,0.86,1s0.77,0.36,1.28,0.36c0.83,0,1.5-0.4,1.98-1.21C84.2,16.09,84.44,14.98,84.44,13.56z"/>
		<path class="st4" d="M92.48,18.83c-1.43,0-2.54-0.47-3.35-1.42c-0.81-0.95-1.21-2.21-1.21-3.81c0-0.69,0.11-1.34,0.33-1.94
			c0.22-0.6,0.53-1.15,0.94-1.64c0.39-0.47,0.89-0.85,1.48-1.14c0.59-0.29,1.24-0.43,1.94-0.43c0.97,0,1.75,0.23,2.36,0.69
			s0.91,1.09,0.91,1.89c0,0.33-0.08,0.63-0.24,0.88c-0.16,0.26-0.42,0.38-0.79,0.38c-0.39,0-0.7-0.1-0.91-0.3s-0.32-0.42-0.32-0.67
			c0-0.3,0.04-0.61,0.12-0.92s0.13-0.55,0.14-0.69c-0.12-0.21-0.3-0.34-0.53-0.41s-0.49-0.1-0.76-0.1c-0.32,0-0.62,0.07-0.91,0.2
			c-0.29,0.14-0.57,0.39-0.84,0.75c-0.25,0.33-0.44,0.78-0.6,1.35s-0.23,1.24-0.23,2.03c0,1.24,0.27,2.25,0.82,3.03
			c0.55,0.78,1.27,1.17,2.16,1.17c0.65,0,1.19-0.16,1.62-0.47c0.44-0.31,0.84-0.79,1.21-1.42l0.64,0.42
			c-0.44,0.79-1.02,1.41-1.74,1.87S93.25,18.83,92.48,18.83z"/>
		<path class="st4" d="M101.99,18.57h-4.76v-0.66c0.15-0.01,0.31-0.03,0.47-0.04c0.16-0.01,0.3-0.04,0.42-0.08
			c0.19-0.06,0.33-0.16,0.42-0.31c0.09-0.15,0.13-0.34,0.13-0.58v-6.08c0-0.21-0.05-0.41-0.15-0.58c-0.1-0.18-0.23-0.32-0.4-0.44
			c-0.13-0.08-0.31-0.15-0.55-0.2c-0.24-0.06-0.46-0.09-0.66-0.11V8.82l3.48-0.22l0.14,0.14v8.03c0,0.23,0.04,0.43,0.13,0.58
			s0.23,0.27,0.42,0.34c0.15,0.06,0.29,0.11,0.43,0.14c0.14,0.04,0.29,0.06,0.47,0.08V18.57z M100.74,4.71
			c0,0.38-0.12,0.71-0.37,0.99c-0.25,0.28-0.56,0.42-0.92,0.42c-0.34,0-0.63-0.13-0.88-0.4c-0.25-0.27-0.37-0.58-0.37-0.92
			c0-0.37,0.12-0.69,0.37-0.96c0.25-0.27,0.54-0.41,0.88-0.41c0.38,0,0.69,0.13,0.93,0.38C100.62,4.07,100.74,4.37,100.74,4.71z"/>
		<path class="st4" d="M111.96,16.25c-0.41,0.79-0.97,1.41-1.66,1.88c-0.69,0.47-1.49,0.7-2.39,0.7c-0.79,0-1.49-0.14-2.08-0.42
			c-0.6-0.28-1.09-0.66-1.47-1.14s-0.67-1.04-0.86-1.68c-0.19-0.64-0.28-1.32-0.28-2.03c0-0.64,0.1-1.27,0.3-1.88
			s0.5-1.17,0.89-1.66c0.38-0.47,0.85-0.85,1.41-1.14c0.56-0.29,1.19-0.43,1.89-0.43c0.72,0,1.33,0.11,1.85,0.34
			c0.51,0.23,0.93,0.54,1.25,0.93c0.31,0.37,0.53,0.81,0.68,1.32s0.22,1.06,0.22,1.65v0.66h-6.52c0,0.65,0.06,1.24,0.18,1.76
			c0.12,0.53,0.32,0.99,0.58,1.39c0.26,0.39,0.6,0.69,1.02,0.92c0.42,0.22,0.92,0.34,1.5,0.34c0.59,0,1.1-0.14,1.53-0.42
			c0.43-0.28,0.84-0.78,1.24-1.5L111.96,16.25z M109.76,12.49c0-0.37-0.03-0.77-0.09-1.2c-0.06-0.42-0.17-0.78-0.3-1.07
			c-0.15-0.3-0.36-0.55-0.63-0.75c-0.27-0.19-0.61-0.29-1.03-0.29c-0.7,0-1.28,0.29-1.74,0.87s-0.71,1.39-0.75,2.43H109.76z"/>
		<path class="st4" d="M119.19,18.14c-0.43,0.18-0.84,0.33-1.23,0.46c-0.39,0.12-0.86,0.18-1.42,0.18c-0.83,0-1.41-0.21-1.74-0.62
			c-0.34-0.42-0.5-1-0.5-1.76V9.72h-1.78V8.76h1.82V5.69h1.82v3.07h2.83v0.96h-2.81v5.5c0,0.41,0.02,0.76,0.04,1.03
			c0.03,0.28,0.1,0.52,0.21,0.72c0.11,0.19,0.27,0.34,0.48,0.44c0.21,0.1,0.5,0.15,0.86,0.15c0.17,0,0.41-0.01,0.73-0.04
			s0.55-0.07,0.68-0.12V18.14z"/>
		<path class="st4" d="M119.42,21.79c0-0.33,0.09-0.6,0.27-0.81c0.18-0.21,0.41-0.31,0.69-0.31c0.21,0,0.4,0.04,0.55,0.12
			c0.15,0.08,0.29,0.18,0.41,0.31c0.1,0.1,0.21,0.23,0.32,0.41s0.2,0.31,0.27,0.43c0.33-0.18,0.73-0.65,1.19-1.41s0.8-1.42,1-1.99
			c-0.63-1.58-1.21-2.99-1.72-4.23c-0.51-1.25-1.05-2.53-1.61-3.87c-0.13-0.31-0.34-0.54-0.64-0.71c-0.3-0.17-0.6-0.28-0.9-0.32
			V8.72h4.5v0.7c-0.2,0.01-0.44,0.05-0.72,0.12c-0.28,0.08-0.42,0.16-0.42,0.26c0,0.04,0.01,0.11,0.04,0.2
			c0.03,0.09,0.07,0.19,0.1,0.29c0.25,0.66,0.64,1.61,1.16,2.85s0.92,2.23,1.21,2.98c0.3-0.71,0.61-1.45,0.94-2.21
			c0.32-0.76,0.69-1.66,1.09-2.7c0.05-0.13,0.11-0.3,0.2-0.52c0.09-0.22,0.13-0.41,0.13-0.57c0-0.17-0.15-0.33-0.46-0.48
			c-0.3-0.15-0.59-0.24-0.86-0.28V8.72h3.66v0.62c-0.2,0.03-0.46,0.15-0.79,0.34s-0.57,0.47-0.73,0.83
			c-0.79,1.84-1.5,3.51-2.11,5.03c-0.62,1.51-1.08,2.62-1.4,3.34c-0.42,0.93-0.79,1.66-1.12,2.18c-0.33,0.52-0.65,0.93-0.96,1.23
			c-0.31,0.28-0.58,0.47-0.83,0.56c-0.25,0.1-0.51,0.14-0.77,0.14c-0.52,0-0.93-0.12-1.22-0.37
			C119.57,22.39,119.42,22.11,119.42,21.79z"/>
	</g>
	<g>
		<path class="st2" d="M127.7,106.04c-2.14,4.43-4.86,8.53-8.05,12.23H34.14c-3.19-3.7-5.9-7.79-8.03-12.23H127.7z"/>
		<path class="st2" d="M34.15,118.27h85.51c-10.33,12-25.66,19.6-42.75,19.6C59.81,137.87,44.5,130.27,34.15,118.27z"/>
		<path class="st2" d="M133.31,81.61c-0.02,4.19-0.48,8.29-1.36,12.23H21.85c-0.89-3.94-1.35-8.03-1.36-12.23H133.31z"/>
		<path class="st2" d="M131.95,93.83c-0.96,4.28-2.39,8.37-4.25,12.21H26.12c-1.88-3.83-3.31-7.93-4.26-12.21H131.95z"/>
		<path class="st2" d="M132.02,69.38H21.78c0.94-4.28,2.35-8.35,4.19-12.21h101.85C129.67,61.03,131.08,65.1,132.02,69.38z"/>
		<path class="st2" d="M127.82,57.17H25.98c2.11-4.43,4.79-8.53,7.93-12.23h85.99C123.04,48.65,125.71,52.74,127.82,57.17z"/>
		<path class="st3" d="M104.02,32.92H49.88c8.02-3.77,17.37-5.94,27.34-5.94C87.18,26.98,96,29.14,104.02,32.92z"/>
		<path class="st2" d="M133.31,81.47v0.14H20.49v-0.14c0-4.14,0.44-8.2,1.29-12.09h110.24C132.87,73.27,133.31,77.33,133.31,81.47z"
			/>
		<path class="st1" d="M120.24,44.95H33.57c4.12-4.84,8.52-8.69,14.07-11.93l57.67-0.29C110.82,35.95,116.12,40.09,120.24,44.95z"/>
	</g>
	<path class="st1" d="M91.04,71.86c0,0-22.54-19.94-27.99-29.05c0,0-1.94-4.05,2.26-3c0,0-1.04-2.37-4.84-0.7
		c0,0-31.36-22.58-46.11-24.22l-9.95-0.2c0,0,10,3.25,8.26,19.46c0,0,11.42,3.09,14.98,32.43c0,0,20.36-2.2,23.98,15.13
		c3.62,17.34,2.64,30.38,0.25,34.66c0,0-3.2,3-3.92,3.47c-0.73,0.48-1.03,2.42,2,1.02c0,0-0.29,1.52,0.46,2.09
		c0.75,0.56,2.16-2.29,2.81-2.64c0.65-0.36,2.7-5.45,3.79-4.76c1.09,0.7,4.05,1.22-3.36,7.76c0,0,2.45-0.02,3.9-0.76
		c0,0-0.44,2.56-0.29,3.23c0.14,0.65-0.18-0.34,2.17-2.52c0,0,10.22-14.67,21.49-17.88c11.28-3.22,13.57,7.63,13.63,12.63
		c0,0,16.52-9.7,27.77-1.23c0,0,8.62-8.16,18.87-0.94c0,0,4.91-2.33-0.86-12.42c-5.77-10.09-14.04-13.99-14.04-13.99
		s0.83-2.37,2.96-1.7c0,0-1.04-1.44-5.28-0.29c0,0-14.63-3.02-18.99-8.11c0,0,3.51-3.48,4.06-4.75c0.56-1.27,1.49-1.59-1.54-3.2
		c0,0-1.08,0.29-3.16-1.54c-2.08-1.84-5.64-1-7.14-0.25c0,0-1.37-1.19-2.62-0.85c0,0-0.4,2.59-0.62,2.85
		C93.74,71.82,92.16,72.86,91.04,71.86z"/>
</g>
</svg>
